HIERARCHY
ROOT newVegas:Hips
{
	OFFSET 0.000000 96.479958 0.000000
	CHANNELS 6 Xposition Yposition Zposition Xrotation Yrotation Zrotation
	JOINT newVegas:Pelvis
	{
		OFFSET 0.000000 0.000000 0.000000
		CHANNELS 3 Xrotation Yrotation Zrotation
		JOINT newVegas:LeftUpLeg
		{
			OFFSET 18.735201 -5.666702 -4.541200
			CHANNELS 3 Xrotation Yrotation Zrotation
			JOINT newVegas:LeftLeg
			{
				OFFSET -0.021200 -31.938179 0.493100
				CHANNELS 3 Xrotation Yrotation Zrotation
				JOINT newVegas:LeftFoot
				{
					OFFSET 0.021200 -31.938179 -4.336299
					CHANNELS 3 Xrotation Yrotation Zrotation
					JOINT newVegas:LeftToeBase
					{
						OFFSET 0.943001 -26.722000 15.023500
						CHANNELS 3 Xrotation Yrotation Zrotation
						End Site
						{
							OFFSET 0.000000 30.670183 0.000000
						}
					}
				}
				JOINT newVegas:Left_PantLeg
				{
					OFFSET 0.663870 -9.044666 -1.108900
					CHANNELS 3 Xrotation Yrotation Zrotation
					End Site
					{
						OFFSET 1.415995 20.635357 0.000000
					}
				}
			}
		}
		JOINT newVegas:RightUpLeg
		{
			OFFSET -18.735201 -5.666702 -4.541200
			CHANNELS 3 Xrotation Yrotation Zrotation
			JOINT newVegas:RightLeg
			{
				OFFSET 0.018946 -31.938133 0.493100
				CHANNELS 3 Xrotation Yrotation Zrotation
				JOINT newVegas:RightFoot
				{
					OFFSET -0.018946 -31.938126 -4.336299
					CHANNELS 3 Xrotation Yrotation Zrotation
					JOINT newVegas:RightToeBase
					{
						OFFSET -0.943001 -26.722004 15.023500
						CHANNELS 3 Xrotation Yrotation Zrotation
						End Site
						{
							OFFSET 0.000000 30.670187 0.000000
						}
					}
				}
				JOINT newVegas:Right_PantLeg
				{
					OFFSET -0.661674 -9.044716 -1.108900
					CHANNELS 3 Xrotation Yrotation Zrotation
					End Site
					{
						OFFSET -1.415958 20.635269 0.000000
					}
				}
			}
		}
	}
	JOINT newVegas:Spine
	{
		OFFSET 0.000000 10.199997 -0.299500
		CHANNELS 3 Xrotation Yrotation Zrotation
		JOINT newVegas:Spine1
		{
			OFFSET 0.000000 11.900002 -1.516600
			CHANNELS 3 Xrotation Yrotation Zrotation
			JOINT newVegas:Spine2
			{
				OFFSET 0.000000 13.600006 -2.842500
				CHANNELS 3 Xrotation Yrotation Zrotation
				JOINT newVegas:Neck
				{
					OFFSET 0.000000 9.624100 -2.890100
					CHANNELS 3 Xrotation Yrotation Zrotation
					JOINT newVegas:Head
					{
						OFFSET 0.000000 14.068802 -1.351900
						CHANNELS 3 Xrotation Yrotation Zrotation
						JOINT newVegas:Hair_Back
						{
							OFFSET 0.000000 3.231903 -17.524799
							CHANNELS 3 Xrotation Yrotation Zrotation
							End Site
							{
								OFFSET 0.000000 19.849884 0.000000
							}
						}
						JOINT newVegas:Hair_Front
						{
							OFFSET 0.000000 31.260406 4.573800
							CHANNELS 3 Xrotation Yrotation Zrotation
							JOINT newVegas:Hair_Front1
							{
								OFFSET 0.000000 2.284103 11.993300
								CHANNELS 3 Xrotation Yrotation Zrotation
								JOINT newVegas:Hair_Front2
								{
									OFFSET 0.000000 2.284103 11.993300
									CHANNELS 3 Xrotation Yrotation Zrotation
									End Site
									{
										OFFSET 0.000000 12.208862 0.000000
									}
								}
							}
						}
						JOINT newVegas:Jowel
						{
							OFFSET 0.000000 -7.458206 6.864100
							CHANNELS 3 Xrotation Yrotation Zrotation
							End Site
							{
								OFFSET 0.000000 19.849884 0.000000
							}
						}
					}
				}
				JOINT newVegas:LeftShoulder
				{
					OFFSET 15.263000 10.923401 -0.547700
					CHANNELS 3 Xrotation Yrotation Zrotation
					JOINT newVegas:LeftArm
					{
						OFFSET 25.438599 -2.830597 -13.032500
						CHANNELS 3 Xrotation Yrotation Zrotation
						JOINT newVegas:LeftForeArm
						{
							OFFSET 29.960503 0.000000 0.000000
							CHANNELS 3 Xrotation Yrotation Zrotation
							JOINT newVegas:LeftHand
							{
								OFFSET 27.849251 0.000000 0.000000
								CHANNELS 3 Xrotation Yrotation Zrotation
								JOINT newVegas:LeftHandThumb1
								{
									OFFSET 4.487587 -3.305161 6.305391
									CHANNELS 3 Xrotation Yrotation Zrotation
									JOINT newVegas:LeftHandThumb2
									{
										OFFSET 5.480453 -3.164139 3.164143
										CHANNELS 3 Xrotation Yrotation Zrotation
										JOINT newVegas:LeftHandThumb3
										{
											OFFSET 5.159721 -2.978973 2.978967
											CHANNELS 3 Xrotation Yrotation Zrotation
											End Site
											{
												OFFSET 2.494507 5.926697 1.738678
											}
										}
									}
								}
								JOINT newVegas:LeftHandIndex1
								{
									OFFSET 18.578728 -0.527832 5.208049
									CHANNELS 3 Xrotation Yrotation Zrotation
									JOINT newVegas:LeftHandIndex2
									{
										OFFSET 3.192009 0.000000 0.000000
										CHANNELS 3 Xrotation Yrotation Zrotation
										JOINT newVegas:LeftHandIndex3
										{
											OFFSET 3.835129 0.000000 0.000000
											CHANNELS 3 Xrotation Yrotation Zrotation
											End Site
											{
												OFFSET -0.034599 3.816971 0.371180
											}
										}
									}
								}
								JOINT newVegas:LeftHandMiddle1
								{
									OFFSET 18.476105 0.000000 0.000000
									CHANNELS 3 Xrotation Yrotation Zrotation
									JOINT newVegas:LeftHandMiddle2
									{
										OFFSET 3.324875 0.000000 0.000000
										CHANNELS 3 Xrotation Yrotation Zrotation
										JOINT newVegas:LeftHandMiddle3
										{
											OFFSET 4.596550 0.000000 0.000000
											CHANNELS 3 Xrotation Yrotation Zrotation
											End Site
											{
												OFFSET 0.057701 4.578827 0.399218
											}
										}
									}
								}
								JOINT newVegas:LeftHandRing1
								{
									OFFSET 17.732719 0.121887 -4.201567
									CHANNELS 3 Xrotation Yrotation Zrotation
									JOINT newVegas:LeftHandRing2
									{
										OFFSET 2.733170 0.000000 0.000000
										CHANNELS 3 Xrotation Yrotation Zrotation
										JOINT newVegas:LeftHandRing3
										{
											OFFSET 3.178268 0.000000 0.000000
											CHANNELS 3 Xrotation Yrotation Zrotation
											End Site
											{
												OFFSET 0.119102 3.170624 0.185394
											}
										}
									}
								}
								JOINT newVegas:LeftHandPinky1
								{
									OFFSET 15.989624 -0.606689 -7.535461
									CHANNELS 3 Xrotation Yrotation Zrotation
									JOINT newVegas:LeftHandPinky2
									{
										OFFSET 2.538986 0.000000 0.000000
										CHANNELS 3 Xrotation Yrotation Zrotation
										JOINT newVegas:LeftHandPinky3
										{
											OFFSET 2.593102 0.000000 0.000000
											CHANNELS 3 Xrotation Yrotation Zrotation
											End Site
											{
												OFFSET -0.150902 2.584198 0.152708
											}
										}
									}
								}
							}
							JOINT newVegas:Left_Sleeve
							{
								OFFSET 0.267448 -0.649796 0.577675
								CHANNELS 3 Xrotation Yrotation Zrotation
								End Site
								{
									OFFSET 0.000000 15.991241 0.000000
								}
							}
							JOINT newVegas:Left_CapeC
							{
								OFFSET 15.715958 -8.608795 -6.935905
								CHANNELS 3 Xrotation Yrotation Zrotation
								JOINT newVegas:Left_CapeC1
								{
									OFFSET 0.000000 -8.688499 0.000000
									CHANNELS 3 Xrotation Yrotation Zrotation
									End Site
									{
										OFFSET 0.000000 8.688499 0.000000
									}
								}
							}
						}
						JOINT newVegas:Left_CapeB
						{
							OFFSET 26.118385 -8.608795 -7.079235
							CHANNELS 3 Xrotation Yrotation Zrotation
							JOINT newVegas:Left_CapeB1
							{
								OFFSET 0.000000 -8.688499 0.000000
								CHANNELS 3 Xrotation Yrotation Zrotation
								End Site
								{
									OFFSET 0.000000 8.688499 0.000000
								}
							}
						}
						JOINT newVegas:Left_CapeA
						{
							OFFSET 5.115639 -8.608795 -10.395809
							CHANNELS 3 Xrotation Yrotation Zrotation
							JOINT newVegas:Left_CapeA1
							{
								OFFSET 0.000000 -8.688499 0.000000
								CHANNELS 3 Xrotation Yrotation Zrotation
								End Site
								{
									OFFSET 0.000000 8.688499 0.000000
								}
							}
						}
					}
				}
				JOINT newVegas:RightShoulder
				{
					OFFSET -15.263000 10.923401 -0.547700
					CHANNELS 3 Xrotation Yrotation Zrotation
					JOINT newVegas:RightArm
					{
						OFFSET -25.438599 -2.830597 -13.032500
						CHANNELS 3 Xrotation Yrotation Zrotation
						JOINT newVegas:RightForeArm
						{
							OFFSET -29.960503 0.000000 0.000000
							CHANNELS 3 Xrotation Yrotation Zrotation
							JOINT newVegas:RightHand
							{
								OFFSET -27.849251 0.000000 0.000000
								CHANNELS 3 Xrotation Yrotation Zrotation
								JOINT newVegas:RightHandThumb1
								{
									OFFSET -4.487587 -3.305161 6.305391
									CHANNELS 3 Xrotation Yrotation Zrotation
									JOINT newVegas:RightHandThumb2
									{
										OFFSET -5.480453 -3.164139 3.164143
										CHANNELS 3 Xrotation Yrotation Zrotation
										JOINT newVegas:RightHandThumb3
										{
											OFFSET -5.159721 -2.978973 2.978967
											CHANNELS 3 Xrotation Yrotation Zrotation
											End Site
											{
												OFFSET -2.494507 5.926697 1.738678
											}
										}
									}
								}
								JOINT newVegas:RightHandIndex1
								{
									OFFSET -18.578728 -0.527832 5.208049
									CHANNELS 3 Xrotation Yrotation Zrotation
									JOINT newVegas:RightHandIndex2
									{
										OFFSET -3.192009 0.000000 0.000000
										CHANNELS 3 Xrotation Yrotation Zrotation
										JOINT newVegas:RightHandIndex3
										{
											OFFSET -3.835129 0.000000 0.000000
											CHANNELS 3 Xrotation Yrotation Zrotation
											End Site
											{
												OFFSET 0.034599 3.816971 0.371180
											}
										}
									}
								}
								JOINT newVegas:RightHandMiddle1
								{
									OFFSET -18.476105 0.000000 0.000000
									CHANNELS 3 Xrotation Yrotation Zrotation
									JOINT newVegas:RightHandMiddle2
									{
										OFFSET -3.324875 0.000000 0.000000
										CHANNELS 3 Xrotation Yrotation Zrotation
										JOINT newVegas:RightHandMiddle3
										{
											OFFSET -4.596550 0.000000 0.000000
											CHANNELS 3 Xrotation Yrotation Zrotation
											End Site
											{
												OFFSET -0.057701 4.578827 0.399218
											}
										}
									}
								}
								JOINT newVegas:RightHandRing1
								{
									OFFSET -17.732719 0.121887 -4.201567
									CHANNELS 3 Xrotation Yrotation Zrotation
									JOINT newVegas:RightHandRing2
									{
										OFFSET -2.733170 0.000000 0.000000
										CHANNELS 3 Xrotation Yrotation Zrotation
										JOINT newVegas:RightHandRing3
										{
											OFFSET -3.178268 0.000000 0.000000
											CHANNELS 3 Xrotation Yrotation Zrotation
											End Site
											{
												OFFSET -0.119102 3.170624 0.185394
											}
										}
									}
								}
								JOINT newVegas:RightHandPinky1
								{
									OFFSET -15.989624 -0.606689 -7.535461
									CHANNELS 3 Xrotation Yrotation Zrotation
									JOINT newVegas:RightHandPinky2
									{
										OFFSET -2.538986 0.000000 0.000000
										CHANNELS 3 Xrotation Yrotation Zrotation
										JOINT newVegas:RightHandPinky3
										{
											OFFSET -2.593102 0.000000 0.000000
											CHANNELS 3 Xrotation Yrotation Zrotation
											End Site
											{
												OFFSET 0.150902 2.584198 0.152708
											}
										}
									}
								}
							}
							JOINT newVegas:Right_CapeC
							{
								OFFSET -15.715958 -8.608795 -6.935905
								CHANNELS 3 Xrotation Yrotation Zrotation
								JOINT newVegas:Right_CapeC1
								{
									OFFSET 0.000000 -8.688499 0.000000
									CHANNELS 3 Xrotation Yrotation Zrotation
									End Site
									{
										OFFSET 0.000000 8.688499 0.000000
									}
								}
							}
							JOINT newVegas:Right_Sleeve
							{
								OFFSET -0.267448 -0.649994 0.577675
								CHANNELS 3 Xrotation Yrotation Zrotation
								End Site
								{
									OFFSET 0.000000 15.991302 0.000000
								}
							}
						}
						JOINT newVegas:Right_CapeA
						{
							OFFSET -5.115540 -8.608795 -10.395824
							CHANNELS 3 Xrotation Yrotation Zrotation
							JOINT newVegas:Right_CapeA1
							{
								OFFSET 0.000000 -8.688499 0.000000
								CHANNELS 3 Xrotation Yrotation Zrotation
								End Site
								{
									OFFSET 0.000000 8.688499 0.000000
								}
							}
						}
						JOINT newVegas:Right_CapeB
						{
							OFFSET -26.118187 -8.608795 -7.079266
							CHANNELS 3 Xrotation Yrotation Zrotation
							JOINT newVegas:Right_CapeB1
							{
								OFFSET 0.000000 -8.688499 0.000000
								CHANNELS 3 Xrotation Yrotation Zrotation
								End Site
								{
									OFFSET 0.000000 8.688499 0.000000
								}
							}
						}
					}
				}
				JOINT newVegas:Left_Collar
				{
					OFFSET 18.625099 8.655502 8.828100
					CHANNELS 3 Xrotation Yrotation Zrotation
					JOINT newVegas:Left_Collar1
					{
						OFFSET 14.783401 10.540405 -1.259500
						CHANNELS 3 Xrotation Yrotation Zrotation
						End Site
						{
							OFFSET 0.000000 18.199875 0.000000
						}
					}
				}
				JOINT newVegas:Collar_Back
				{
					OFFSET 0.000000 15.630707 -20.132601
					CHANNELS 3 Xrotation Yrotation Zrotation
					End Site
					{
						OFFSET 0.000000 22.523010 0.000000
					}
				}
				JOINT newVegas:Left_Peck
				{
					OFFSET 17.239599 -5.132599 25.482599
					CHANNELS 3 Xrotation Yrotation Zrotation
					End Site
					{
						OFFSET 0.000000 22.523010 0.000000
					}
				}
				JOINT newVegas:Right_Peck
				{
					OFFSET -17.239599 -5.132202 25.482599
					CHANNELS 3 Xrotation Yrotation Zrotation
					End Site
					{
						OFFSET 0.000000 22.523010 0.000000
					}
				}
				JOINT newVegas:Right_Collar
				{
					OFFSET -18.625099 8.655792 8.828100
					CHANNELS 3 Xrotation Yrotation Zrotation
					JOINT newVegas:Right_Collar1
					{
						OFFSET -14.783401 10.539993 -1.259500
						CHANNELS 3 Xrotation Yrotation Zrotation
						End Site
						{
							OFFSET 0.000000 18.199631 0.000000
						}
					}
				}
			}
		}
		JOINT newVegas:Belly
		{
			OFFSET 0.000000 -6.540398 9.014299
			CHANNELS 3 Xrotation Yrotation Zrotation
			End Site
			{
				OFFSET 0.000000 11.566666 0.000000
			}
		}
	}
	JOINT newVegas:ElvisFacialAnim_Joint
	{
		OFFSET 1.000000 -95.330101 -8.825800
		CHANNELS 3 Xrotation Yrotation Zrotation
		End Site
		{
			OFFSET 0.000000 35.315800 0.000000
		}
	}
}
MOTION
Frames: 4
Frame Time: 0.033333
-264.941376 20.199272 9.753227 -39.925075 -23.813998 112.282675 0.000001 -0.000003 -0.000001 -56.136717 -11.666107 -26.760963 51.808371 13.512827 10.966193 31.721523 -31.879932 -26.680838 0.000001 0.000001 0.000000 -0.000001 0.000002 -0.000003 -14.873995 -25.528278 -5.786015 79.057835 -1.094489 -3.741923 28.229037 7.967434 31.722008 0.000000 -0.000002 -0.000001 0.000001 0.000000 -0.000000 53.724438 -21.276512 -5.894480 -6.070045 -1.406549 -3.611809 -6.096558 -1.940670 -3.306723 8.846289 1.534350 0.268618 8.846295 1.534341 0.268602 -0.000003 0.000001 -0.000001 8.846305 1.534373 0.268614 8.846314 1.534304 0.268612 -0.000001 -0.000001 -0.000000 -0.000003 0.000001 -0.000001 6.239112 -13.852098 -1.303508 -22.042052 -64.416887 -46.548552 -0.000021 -44.686981 -0.000022 -12.653340 -6.410280 3.107710 -1.540045 3.690194 6.142351 3.939043 7.948674 0.746793 -0.000004 -0.000002 -0.000001 -0.000004 0.000001 -0.000003 -0.000002 0.000003 -0.000012 0.000002 -0.000002 -0.000000 0.000003 -0.001928 0.015981 -0.000006 0.001934 -0.015976 -0.000000 -0.000000 0.000002 -0.000003 0.000005 0.000006 -0.000002 -0.000009 0.000000 -0.000001 0.000003 -0.000000 -0.018087 4.054249 0.511070 -0.018091 -4.054237 -0.511067 -0.000004 -0.000003 -0.000000 0.000002 -0.000001 0.000002 0.000002 -0.000001 0.000002 0.000002 -0.000001 0.000002 -0.000002 0.000002 -0.000002 -0.000002 0.000001 -0.000003 -0.000002 0.000002 -0.000002 -0.000003 0.000003 -0.000003 5.660704 9.627920 -41.570232 -41.225765 28.997572 11.929742 -0.000004 0.761814 -0.000002 49.177420 19.788344 -8.523774 -1.849242 -3.581799 -6.586140 4.637178 -8.634131 -0.225392 -0.000000 -0.000000 -0.000001 0.000004 -0.000002 -0.000009 -0.000008 0.000012 0.000011 0.000000 -0.000000 0.000001 0.000001 -0.000005 -0.000004 0.000007 0.000005 0.000002 0.000000 0.000000 -0.000000 0.000001 0.000003 -0.000007 -0.000002 -0.000005 0.000008 -0.000001 -0.000001 0.000002 0.000009 -0.000002 -0.000018 -0.000006 0.000002 0.000021 0.000000 0.000003 0.000001 0.000001 0.000000 0.000000 0.000001 0.000001 -0.000000 0.000000 0.000000 -0.000000 0.000001 0.000001 -0.000001 0.000001 0.000001 0.000001 0.000001 0.000001 -0.000001 0.000001 0.000001 0.000001 -0.000001 0.000002 -0.000001 -0.000001 0.000002 -0.000001 -0.000001 0.000002 -0.000001 -0.000001 0.000002 -0.000001 -0.000001 0.000002 -0.000001 -0.000001 0.000002 -0.000001 -0.000001 0.000002 -0.000001 -0.000001 -0.000001 0.000001 0.000001 -0.000003 -0.000001 
-267.526398 21.547966 10.803461 -40.655536 -24.975838 114.362570 0.000001 -0.000001 0.000001 -64.196566 -9.999775 -23.605219 49.554962 13.295836 10.791697 36.010465 -33.847457 -26.021815 0.000003 -0.000000 -0.000000 0.000000 0.000003 -0.000003 -12.596287 -24.079441 -3.439852 69.601294 -2.241101 -4.355417 28.012436 9.142052 31.565385 0.000000 0.000000 0.000000 0.000001 -0.000001 -0.000000 51.172348 -18.637964 -7.449413 -7.011167 -0.737250 -4.589076 -7.056081 -1.374053 -4.395619 7.767336 1.080742 2.572068 7.767336 1.080728 2.572047 0.000002 0.000002 0.000001 7.767335 1.080740 2.572065 7.767377 1.080785 2.572069 0.000003 0.000001 -0.000000 0.000002 0.000002 -0.000000 7.412914 -15.256824 3.903512 -52.472880 -63.814519 -73.948389 -0.000002 -35.679071 0.000003 -11.472694 -10.032015 7.007019 -1.540050 3.690193 6.142355 3.939042 7.948676 0.746800 -0.000001 -0.000001 -0.000001 -0.000006 0.000000 -0.000002 -0.000004 0.000004 -0.000012 0.000001 0.000001 -0.000000 0.000002 -0.001930 0.015981 -0.000001 0.001934 -0.015976 0.000002 0.000000 0.000000 -0.000010 0.000004 0.000008 -0.000002 -0.000011 -0.000002 -0.000000 -0.000001 0.000001 -0.018090 4.054247 0.511069 -0.018093 -4.054239 -0.511069 -0.000001 -0.000001 -0.000003 0.000002 0.000000 -0.000001 0.000002 0.000000 -0.000001 0.000001 -0.000000 -0.000001 0.000004 0.000001 0.000002 0.000004 0.000000 0.000002 0.000004 0.000001 0.000002 0.000004 0.000000 -0.000000 8.889962 12.881515 -37.396385 -26.264757 32.700678 4.024947 0.000035 4.625017 0.000008 27.171749 24.381820 -11.133813 -1.849246 -3.581802 -6.586139 4.637175 -8.634129 -0.225393 0.000001 0.000000 -0.000002 0.000010 -0.000005 -0.000009 -0.000010 0.000009 0.000015 -0.000002 -0.000001 0.000002 0.000000 -0.000008 -0.000002 0.000006 0.000007 -0.000001 -0.000001 0.000003 -0.000004 -0.000001 0.000002 -0.000007 -0.000003 -0.000006 0.000010 -0.000001 -0.000003 0.000000 0.000009 -0.000007 -0.000018 -0.000007 0.000004 0.000023 -0.000001 0.000005 -0.000001 -0.000001 0.000000 0.000002 -0.000000 -0.000001 -0.000001 -0.000001 -0.000000 0.000002 -0.000000 -0.000001 -0.000002 -0.000000 -0.000001 -0.000001 -0.000000 -0.000001 -0.000002 -0.000000 -0.000001 -0.000001 -0.000000 -0.000001 0.000001 -0.000000 -0.000001 0.000001 -0.000000 -0.000001 0.000001 -0.000000 -0.000001 0.000001 -0.000000 -0.000001 0.000001 -0.000000 -0.000001 0.000001 -0.000000 -0.000001 0.000001 -0.000002 0.000003 -0.000000 0.000001 -0.000001 0.000001 
-269.776123 22.193687 10.995368 -41.931713 -27.086157 115.257011 -0.000001 -0.000001 -0.000001 -71.418862 -6.557354 -20.612877 50.209523 12.172412 10.927724 32.203143 -33.379903 -26.060220 -0.000000 -0.000001 -0.000001 -0.000001 0.000003 0.000001 -11.930191 -22.163062 -2.083904 62.166374 -3.107548 -3.998259 29.804401 10.863779 31.639116 -0.000000 -0.000000 -0.000000 0.000002 -0.000001 -0.000003 50.621561 -16.356655 -7.625186 -7.256472 -0.277734 -5.252807 -7.303686 -0.959867 -5.145427 7.199266 0.514679 3.198790 7.199272 0.514674 3.198788 0.000001 0.000000 -0.000000 7.199281 0.514716 3.198769 7.199269 0.514633 3.198805 -0.000003 -0.000001 0.000001 0.000001 0.000000 -0.000000 8.246402 -16.489472 6.127894 -73.167869 -60.406125 -90.179261 -0.000021 -28.180075 -0.000023 -10.722494 -16.224406 15.483030 -1.540044 3.690192 6.142355 3.939048 7.948674 0.746797 -0.000004 -0.000001 -0.000004 -0.000002 -0.000001 -0.000003 -0.000007 0.000007 -0.000011 0.000000 -0.000001 -0.000000 0.000005 -0.001930 0.015980 0.000003 0.001935 -0.015978 0.000002 -0.000001 -0.000000 -0.000002 0.000007 0.000004 -0.000002 -0.000011 -0.000002 -0.000000 -0.000001 0.000000 -0.018088 4.054247 0.511070 -0.018090 -4.054241 -0.511070 -0.000003 -0.000003 0.000000 -0.000000 0.000003 -0.000003 -0.000000 0.000003 -0.000003 -0.000001 0.000003 -0.000003 0.000002 -0.000002 -0.000002 0.000002 -0.000003 -0.000003 0.000002 -0.000002 -0.000002 0.000001 -0.000003 -0.000003 8.762382 12.606146 -30.867889 -20.322975 39.073702 -1.575649 0.000008 9.306278 0.000011 12.432868 29.026982 -11.268120 -1.849244 -3.581799 -6.586143 4.637177 -8.634129 -0.225391 -0.000003 -0.000003 -0.000003 0.000003 -0.000001 -0.000006 -0.000007 0.000014 0.000009 0.000001 0.000004 -0.000001 0.000001 -0.000007 -0.000005 0.000006 0.000008 0.000003 -0.000001 0.000002 -0.000002 -0.000003 -0.000001 -0.000008 -0.000004 -0.000006 0.000009 0.000001 0.000004 -0.000001 0.000007 -0.000004 -0.000017 -0.000002 0.000002 0.000025 -0.000001 0.000002 -0.000000 0.000003 -0.000001 -0.000001 0.000001 0.000001 -0.000001 0.000003 -0.000001 -0.000000 0.000001 -0.000001 0.000002 0.000001 0.000000 0.000000 0.000001 -0.000001 0.000002 0.000001 0.000000 0.000002 0.000002 0.000000 -0.000000 0.000002 0.000000 -0.000000 0.000002 0.000000 -0.000000 0.000002 0.000000 -0.000000 0.000002 0.000000 -0.000000 0.000002 0.000000 -0.000000 0.000002 0.000000 -0.000000 -0.000001 -0.000001 0.000001 -0.000001 -0.000001 -0.000001 
-271.370636 22.623291 11.006729 -43.075657 -30.171428 115.505493 -0.000001 0.000000 0.000001 -76.624388 -4.824672 -18.518878 49.617165 11.474288 11.155521 25.255716 -32.109570 -28.753116 -0.000000 0.000000 -0.000002 -0.000000 0.000005 -0.000000 -12.243978 -20.359588 -1.659710 57.716273 -4.823307 -3.574542 32.183807 12.850058 31.270447 0.000000 -0.000001 0.000000 0.000002 0.000002 -0.000002 51.299430 -14.283409 -7.214748 -6.814750 -0.084474 -5.046508 -6.850728 -0.719197 -4.984314 7.194278 0.217192 2.367926 7.194274 0.217198 2.367948 0.000001 -0.000000 -0.000001 7.194274 0.217198 2.367942 7.194317 0.217193 2.367919 -0.000003 -0.000002 0.000000 0.000001 -0.000000 0.000000 8.395914 -16.804169 6.200719 -87.312678 -58.671031 -99.324652 -0.000004 -22.256018 -0.000013 -8.408255 -23.793302 24.928778 -1.540047 3.690190 6.142356 3.939044 7.948672 0.746798 -0.000000 -0.000002 -0.000003 -0.000005 0.000000 -0.000003 -0.000004 0.000005 -0.000015 0.000003 0.000001 0.000002 0.000007 -0.001931 0.015980 -0.000001 0.001933 -0.015977 0.000003 -0.000001 -0.000000 -0.000002 0.000008 0.000003 -0.000000 -0.000011 -0.000003 -0.000003 -0.000002 -0.000001 -0.018088 4.054245 0.511070 -0.018094 -4.054239 -0.511066 -0.000002 -0.000004 0.000003 0.000003 -0.000001 0.000001 0.000003 -0.000001 0.000001 0.000002 -0.000001 0.000001 0.000000 0.000000 0.000000 0.000000 -0.000001 0.000001 0.000000 0.000000 0.000000 -0.000001 -0.000001 -0.000000 7.292330 10.454648 -28.705028 -18.574901 46.475486 -2.903490 -0.000015 10.777460 0.000013 7.960143 33.015273 -10.483726 -1.849245 -3.581801 -6.586142 4.637176 -8.634136 -0.225390 -0.000002 -0.000006 -0.000003 0.000009 -0.000003 -0.000010 -0.000005 0.000013 0.000011 0.000002 -0.000000 -0.000001 -0.000001 -0.000005 -0.000005 0.000009 0.000009 0.000003 0.000002 0.000002 -0.000000 -0.000001 0.000003 -0.000003 -0.000005 -0.000007 0.000011 0.000000 -0.000001 -0.000001 0.000008 -0.000002 -0.000020 -0.000011 0.000003 0.000026 0.000001 -0.000002 -0.000000 0.000001 0.000000 0.000000 -0.000001 -0.000003 0.000000 0.000001 0.000000 -0.000000 0.000001 0.000000 0.000002 0.000001 0.000001 0.000002 0.000001 0.000000 0.000002 0.000001 0.000001 0.000001 -0.000000 -0.000000 0.000001 -0.000000 -0.000000 0.000001 -0.000000 -0.000000 0.000001 -0.000000 -0.000000 0.000001 -0.000000 -0.000000 0.000001 -0.000000 -0.000000 0.000001 -0.000000 -0.000000 0.000001 0.000001 0.000002 -0.000001 -0.000001 0.000000 0.000001 
